<?xml version="1.0" encoding="iso-8859-1"?>
<!-- Generator: Adobe Illustrator 19.0.0, SVG Export Plug-In . SVG Version: 6.00 Build 0)  -->
<svg version="1.1" id="Layer_1" xmlns="http://www.w3.org/2000/svg" xmlns:xlink="http://www.w3.org/1999/xlink" x="0px" y="0px"
	 viewBox="0 0 512 512" style="enable-background:new 0 0 512 512;" xml:space="preserve">
<g>
	<g>
		<path d="M379.853,0H132.147C112.94,0,97.313,15.627,97.313,34.834v442.333c0,19.207,15.627,34.834,34.834,34.834h247.706
			c19.207,0,34.834-15.627,34.834-34.834V34.834C414.687,15.627,399.06,0,379.853,0z M398.099,477.166
			c0,10.061-8.184,18.246-18.246,18.246H132.147c-10.062,0-18.246-8.185-18.246-18.246V228.907h284.199V477.166z M123.483,212.32
			l57.688-57.688c7.117-7.113,18.692-7.113,25.805,0l57.688,57.688H123.483z M398.099,212.32H288.122l-20.394-20.393l63.834-63.835
			c7.117-7.114,18.692-7.113,25.805,0l40.732,40.731V212.32z M398.099,145.364l-29.003-29.002c-13.581-13.581-35.68-13.581-49.263,0
			L256,180.197l-37.295-37.295c-13.581-13.581-35.68-13.581-49.263,0l-55.542,55.542V34.834c0-10.061,8.184-18.246,18.246-18.246
			h247.706c10.062,0,18.246,8.185,18.246,18.246V145.364z"/>
	</g>
</g>
<g>
	<g>
		<path d="M291.387,106.16h-10.764c-2.59-7.667-8.662-13.739-16.329-16.329V79.067c0-4.58-3.712-8.294-8.294-8.294
			s-8.294,3.713-8.294,8.294v10.764c-7.667,2.59-13.739,8.662-16.329,16.329h-10.764c-4.581,0-8.294,3.713-8.294,8.294
			c0,4.58,3.712,8.294,8.294,8.294h10.764c2.59,7.667,8.662,13.739,16.329,16.329v10.764c0,4.58,3.712,8.294,8.294,8.294
			s8.294-3.713,8.294-8.294v-10.764c7.667-2.59,13.739-8.662,16.329-16.329h10.764c4.581,0,8.294-3.713,8.294-8.294
			C299.68,109.873,295.968,106.16,291.387,106.16z M256,123.853c-5.183,0-9.4-4.217-9.4-9.4s4.217-9.4,9.4-9.4s9.4,4.216,9.4,9.4
			S261.183,123.853,256,123.853z"/>
	</g>
</g>
<g>
	<g>
		<path d="M371.006,35.387h-17.693c-4.581,0-8.294,3.713-8.294,8.294c0,4.58,3.712,8.294,8.294,8.294h17.693
			c4.581,0,8.294-3.713,8.294-8.294C379.3,39.1,375.588,35.387,371.006,35.387z"/>
	</g>
</g>
<g>
	<g>
		<path d="M317.927,35.387h-17.693c-4.581,0-8.294,3.713-8.294,8.294c0,4.58,3.712,8.294,8.294,8.294h17.693
			c4.581,0,8.294-3.713,8.294-8.294C326.22,39.1,322.508,35.387,317.927,35.387z"/>
	</g>
</g>
<g>
	<g>
		<path d="M264.847,35.387h-17.693c-4.581,0-8.294,3.713-8.294,8.294c0,4.58,3.712,8.294,8.294,8.294h17.693
			c4.581,0,8.294-3.713,8.294-8.294C273.14,39.1,269.428,35.387,264.847,35.387z"/>
	</g>
</g>
<g>
	<g>
		<path d="M211.767,35.387h-70.773c-4.581,0-8.294,3.713-8.294,8.294c0,4.58,3.712,8.294,8.294,8.294h70.773
			c4.581,0,8.294-3.713,8.294-8.294C220.06,39.1,216.348,35.387,211.767,35.387z"/>
	</g>
</g>
<g>
	<g>
		<path d="M326.773,247.706H185.227c-4.581,0-8.294,3.713-8.294,8.294c0,4.58,3.712,8.294,8.294,8.294h141.546
			c4.581,0,8.294-3.713,8.294-8.294C335.067,251.42,331.355,247.706,326.773,247.706z"/>
	</g>
</g>
<g>
	<g>
		<path d="M194.073,380.406h-53.08c-4.581,0-8.294,3.713-8.294,8.294c0,4.58,3.712,8.294,8.294,8.294h53.08
			c4.581,0,8.294-3.713,8.294-8.294C202.367,384.119,198.655,380.406,194.073,380.406z"/>
	</g>
</g>
<g>
	<g>
		<path d="M282.54,380.406h-53.08c-4.581,0-8.294,3.713-8.294,8.294c0,4.58,3.712,8.294,8.294,8.294h53.08
			c4.581,0,8.294-3.713,8.294-8.294C290.834,384.119,287.121,380.406,282.54,380.406z"/>
	</g>
</g>
<g>
	<g>
		<path d="M371.006,380.406h-53.08c-4.581,0-8.294,3.713-8.294,8.294c0,4.58,3.712,8.294,8.294,8.294h53.08
			c4.581,0,8.294-3.713,8.294-8.294C379.3,384.119,375.588,380.406,371.006,380.406z"/>
	</g>
</g>
<g>
	<g>
		<path d="M238.307,415.793h-44.233c-4.581,0-8.294,3.713-8.294,8.294c0,4.58,3.712,8.294,8.294,8.294h44.233
			c4.581,0,8.294-3.713,8.294-8.294C246.6,419.506,242.888,415.793,238.307,415.793z"/>
	</g>
</g>
<g>
	<g>
		<path d="M158.687,415.793h-8.847c-4.581,0-8.294,3.713-8.294,8.294c0,4.58,3.712,8.294,8.294,8.294h8.847
			c4.581,0,8.294-3.713,8.294-8.294C166.981,419.506,163.268,415.793,158.687,415.793z"/>
	</g>
</g>
<g>
	<g>
		<path d="M362.16,415.793h-44.233c-4.581,0-8.294,3.713-8.294,8.294c0,4.58,3.712,8.294,8.294,8.294h44.233
			c4.581,0,8.294-3.713,8.294-8.294C370.454,419.506,366.741,415.793,362.16,415.793z"/>
	</g>
</g>
<g>
	<g>
		<path d="M282.54,415.793h-8.847c-4.581,0-8.294,3.713-8.294,8.294c0,4.58,3.712,8.294,8.294,8.294h8.847
			c4.581,0,8.294-3.713,8.294-8.294C290.834,419.506,287.121,415.793,282.54,415.793z"/>
	</g>
</g>
<g>
	<g>
		<path d="M238.307,451.179h-44.233c-4.581,0-8.294,3.713-8.294,8.294c0,4.58,3.712,8.294,8.294,8.294h44.233
			c4.581,0,8.294-3.713,8.294-8.294C246.6,454.893,242.888,451.179,238.307,451.179z"/>
	</g>
</g>
<g>
	<g>
		<path d="M158.687,451.179h-8.847c-4.581,0-8.294,3.713-8.294,8.294c0,4.58,3.712,8.294,8.294,8.294h8.847
			c4.581,0,8.294-3.713,8.294-8.294C166.981,454.893,163.268,451.179,158.687,451.179z"/>
	</g>
</g>
<g>
	<g>
		<path d="M362.16,451.179h-44.233c-4.581,0-8.294,3.713-8.294,8.294c0,4.58,3.712,8.294,8.294,8.294h44.233
			c4.581,0,8.294-3.713,8.294-8.294C370.454,454.893,366.741,451.179,362.16,451.179z"/>
	</g>
</g>
<g>
	<g>
		<path d="M282.54,451.179h-8.847c-4.581,0-8.294,3.713-8.294,8.294c0,4.58,3.712,8.294,8.294,8.294h8.847
			c4.581,0,8.294-3.713,8.294-8.294C290.834,454.893,287.121,451.179,282.54,451.179z"/>
	</g>
</g>
<g>
	<g>
		<path d="M282.54,283.093h-53.08c-4.581,0-8.294,3.713-8.294,8.294v61.927c0,4.58,3.712,8.294,8.294,8.294h53.08
			c4.581,0,8.294-3.713,8.294-8.294v-61.927C290.834,286.806,287.121,283.093,282.54,283.093z M274.246,345.019h-36.492V299.68
			h36.492V345.019z"/>
	</g>
</g>
<g>
	<g>
		<path d="M371.006,283.093h-53.08c-4.581,0-8.294,3.713-8.294,8.294v61.927c0,4.58,3.712,8.294,8.294,8.294h53.08
			c4.581,0,8.294-3.713,8.294-8.294v-61.927C379.3,286.806,375.588,283.093,371.006,283.093z M362.713,345.019H326.22V299.68h36.492
			V345.019z"/>
	</g>
</g>
<g>
	<g>
		<path d="M194.073,283.093h-53.08c-4.581,0-8.294,3.713-8.294,8.294v61.927c0,4.58,3.712,8.294,8.294,8.294h53.08
			c4.581,0,8.294-3.713,8.294-8.294v-61.927C202.367,286.806,198.655,283.093,194.073,283.093z M185.78,345.019h-36.492V299.68
			h36.492V345.019z"/>
	</g>
</g>
<g>
</g>
<g>
</g>
<g>
</g>
<g>
</g>
<g>
</g>
<g>
</g>
<g>
</g>
<g>
</g>
<g>
</g>
<g>
</g>
<g>
</g>
<g>
</g>
<g>
</g>
<g>
</g>
<g>
</g>
</svg>
